<?xml version="1.0" encoding="UTF-8"?>
<svg xmlns="http://www.w3.org/2000/svg" xmlns:xlink="http://www.w3.org/1999/xlink" width="550.94pt" height="189.82pt" viewBox="0 0 550.94 189.82" version="1.1">
<defs>
<clipPath id="clip1">
  <path d="M 0 58 L 114 58 L 114 189.820313 L 0 189.820313 Z M 0 58 "/>
</clipPath>
<clipPath id="clip2">
  <path d="M 107 85 L 216 85 L 216 189.820313 L 107 189.820313 Z M 107 85 "/>
</clipPath>
<clipPath id="clip3">
  <path d="M 360 58 L 425 58 L 425 189.820313 L 360 189.820313 Z M 360 58 "/>
</clipPath>
<clipPath id="clip4">
  <path d="M 401 90 L 458 90 L 458 189.820313 L 401 189.820313 Z M 401 90 "/>
</clipPath>
<clipPath id="clip5">
  <path d="M 450 85 L 550.941406 85 L 550.941406 189.820313 L 450 189.820313 Z M 450 85 "/>
</clipPath>
<clipPath id="clip6">
  <path d="M 276 85 L 377 85 L 377 189.820313 L 276 189.820313 Z M 276 85 "/>
</clipPath>
<clipPath id="clip7">
  <path d="M 221 58 L 283 58 L 283 189.820313 L 221 189.820313 Z M 221 58 "/>
</clipPath>
</defs>
<g id="surface1">
<g clip-path="url(#clip1)" clip-rule="nonzero">
<path style=" stroke:none;fill-rule:nonzero;fill:rgb(60.398865%,7.099915%,4.699707%);fill-opacity:1;" d="M 79.246094 97.410156 C 78.109375 101.703125 75.996094 105.007813 72.875 107.339844 C 69.753906 109.679688 65.6875 110.851563 60.703125 110.851563 L 52.625 110.851563 L 59.753906 84.347656 L 66.695313 84.347656 C 68.933594 84.347656 70.949219 84.605469 72.78125 85.101563 C 74.574219 85.605469 76.089844 86.375 77.261719 87.382813 C 78.457031 88.386719 79.246094 89.742188 79.589844 91.449219 C 79.96875 93.148438 79.851563 95.136719 79.246094 97.410156 M 68.933594 150.5625 C 66.695313 159.527344 59.375 164.003906 47.007813 164.003906 L 38.582031 164.003906 L 45.90625 136.75 L 53.945313 136.75 C 59.8125 136.75 64.136719 137.660156 66.972656 139.484375 C 69.777344 141.328125 70.417969 145.007813 68.933594 150.5625 M 112.5 77.097656 C 110.917969 72.738281 108.199219 69.175781 104.328125 66.398438 C 100.441406 63.621094 95.652344 61.636719 89.910156 60.441406 C 84.160156 59.238281 77.855469 58.640625 70.980469 58.640625 L 34.636719 58.640625 L 0 189.710938 L 43.828125 189.710938 C 59.566406 189.710938 72.152344 186.375 81.578125 179.683594 C 91.011719 172.992188 97.167969 164.191406 100.035156 153.214844 C 102.023438 145.648438 101.863281 138.980469 99.566406 133.238281 C 97.257813 127.507813 93.410156 123.46875 88.050781 121.0625 L 88.242188 120.503906 C 94.101563 118.234375 99.144531 114.6875 103.410156 109.898438 C 107.636719 105.101563 110.640625 99.496094 112.402344 93.058594 C 114.007813 86.746094 114.050781 81.441406 112.5 77.097656 "/>
</g>
<g clip-path="url(#clip2)" clip-rule="nonzero">
<path style=" stroke:none;fill-rule:nonzero;fill:rgb(60.398865%,7.099915%,4.699707%);fill-opacity:1;" d="M 140.222656 134.714844 L 141.488281 131.246094 C 143.878906 124.808594 148.226563 119.175781 154.523438 114.261719 C 160.953125 109.515625 167.496094 107.410156 174.144531 107.972656 C 180.390625 108.488281 184.285156 110.210938 185.894531 113.125 Z M 203.15625 96.519531 C 196.054688 90.230469 187.25 86.636719 176.71875 85.761719 C 169.691406 85.039063 160.265625 85.914063 152.707031 88.34375 C 145.183594 90.761719 131.90625 97.535156 121.589844 110.910156 C 116.570313 117.425781 112.464844 125.042969 110.167969 132.265625 C 108.476563 137.601563 107.558594 144.925781 108.054688 151.398438 C 108.566406 157.863281 110.183594 163.796875 113.203125 169.292969 C 116.21875 174.773438 120.503906 179.417969 126.023438 183.1875 C 131.539063 186.957031 138.222656 189.046875 146.046875 189.433594 C 154.792969 190.164063 163.335938 189.457031 171.703125 187.304688 C 180.09375 185.167969 188.589844 181.933594 197.230469 177.617188 L 189.851563 152.980469 C 177.5625 160.03125 166.375 163.136719 156.207031 162.289063 C 153.078125 162.019531 150.265625 161.167969 147.773438 159.695313 C 145.238281 158.222656 143.53125 156.195313 142.546875 153.585938 L 215.675781 120.632813 C 214.546875 110.859375 210.378906 102.824219 203.15625 96.519531 "/>
</g>
<g clip-path="url(#clip3)" clip-rule="nonzero">
<path style=" stroke:none;fill-rule:nonzero;fill:rgb(90%,90%,90%);fill-opacity:1;" d="M 395.660156 58.609375 L 360.789063 189.8125 L 390.03125 189.636719 L 424.734375 58.609375 Z M 395.660156 58.609375 "/>
</g>
<g clip-path="url(#clip4)" clip-rule="nonzero">
<path style=" stroke:none;fill-rule:nonzero;fill:rgb(90%,90%,90%);fill-opacity:1;" d="M 428.214844 90.152344 L 401.851563 189.691406 L 431.117188 189.503906 L 457.53125 90.152344 Z M 428.214844 90.152344 "/>
</g>
<g clip-path="url(#clip5)" clip-rule="nonzero">
<path style=" stroke:none;fill-rule:nonzero;fill:rgb(90%,90%,90%);fill-opacity:1;" d="M 499.808594 163.070313 C 496.054688 163.070313 492.828125 162.347656 490.152344 160.898438 C 487.476563 159.445313 485.421875 157.492188 483.976563 155.023438 C 482.542969 152.566406 481.726563 149.664063 481.539063 146.320313 C 481.347656 142.972656 481.761719 139.351563 482.777344 135.4375 C 484.628906 128.367188 488.386719 122.789063 493.996094 118.621094 C 500 114.078125 506.296875 111.8125 512.929688 111.8125 C 516.429688 111.8125 519.636719 112.410156 522.640625 113.605469 C 525.671875 114.808594 528.097656 116.484375 529.964844 118.621094 L 550.9375 97.046875 C 547.3125 93.253906 542.800781 90.332031 537.371094 88.242188 C 531.910156 86.164063 526.144531 85.113281 520.015625 85.113281 C 512.296875 85.113281 504.824219 86.441406 497.660156 89.09375 C 490.464844 91.746094 483.871094 95.433594 477.878906 100.164063 C 471.886719 104.902344 466.679688 110.574219 462.226563 117.199219 C 457.824219 123.796875 454.53125 131.144531 452.417969 139.21875 C 450.804688 144.964844 449.84375 150.917969 451.003906 158.433594 C 451.949219 164.519531 454.117188 169.914063 457.5625 174.585938 C 460.996094 179.25 465.632813 182.976563 471.507813 185.753906 C 477.375 188.523438 484.3125 189.855469 492.324219 189.71875 C 495.078125 189.71875 498.164063 189.441406 501.566406 188.878906 C 505 188.304688 508.511719 187.488281 512.070313 186.421875 C 515.640625 185.34375 519.046875 184.011719 522.296875 182.4375 C 525.546875 180.867188 528.355469 179.0625 530.730469 177.042969 L 520.402344 155.875 C 513.914063 160.671875 507.054688 163.070313 499.808594 163.070313 "/>
</g>
<g clip-path="url(#clip6)" clip-rule="nonzero">
<path style=" stroke:none;fill-rule:nonzero;fill:rgb(90%,90%,90%);fill-opacity:1;" d="M 325.613281 163.15625 C 321.851563 163.15625 318.636719 162.429688 315.960938 160.984375 C 313.273438 159.527344 311.226563 157.574219 309.773438 155.109375 C 308.351563 152.652344 307.53125 149.746094 307.355469 146.40625 C 307.152344 143.054688 307.566406 139.4375 308.566406 135.523438 C 310.4375 128.453125 314.191406 122.871094 319.8125 118.703125 C 325.804688 114.160156 332.109375 111.894531 338.742188 111.894531 C 342.234375 111.894531 345.460938 112.492188 348.449219 113.6875 C 351.476563 114.890625 353.910156 116.566406 355.769531 118.703125 L 376.753906 97.125 C 373.128906 93.335938 368.605469 90.40625 363.179688 88.328125 C 357.722656 86.25 351.949219 85.203125 345.828125 85.203125 C 338.113281 85.203125 330.621094 86.527344 323.46875 89.179688 C 316.277344 91.820313 309.679688 95.523438 303.695313 100.253906 C 297.695313 104.984375 292.484375 110.65625 288.039063 117.28125 C 283.628906 123.871094 280.347656 131.222656 278.234375 139.300781 C 276.339844 145.992188 275.867188 152.398438 276.8125 158.515625 C 277.753906 164.601563 279.933594 169.996094 283.375 174.667969 C 286.8125 179.332031 291.441406 183.0625 297.316406 185.839844 C 303.183594 188.609375 310.125 189.9375 318.140625 189.8125 C 320.882813 189.8125 323.972656 189.523438 327.378906 188.960938 C 330.824219 188.398438 334.316406 187.574219 337.886719 186.503906 C 341.445313 185.425781 344.855469 184.097656 348.101563 182.523438 C 351.351563 180.941406 354.15625 179.148438 356.527344 177.125 L 346.21875 155.957031 C 339.710938 160.753906 332.878906 163.15625 325.613281 163.15625 "/>
</g>
<path style=" stroke:none;fill-rule:nonzero;fill:rgb(60.398865%,7.099915%,4.699707%);fill-opacity:1;" d="M 460.546875 73.152344 C 466.53125 66.496094 466.953125 56.183594 461.386719 50.097656 C 455.875 44.003906 446.53125 44.476563 440.503906 51.132813 C 434.511719 57.789063 434.144531 68.136719 439.664063 74.230469 C 445.1875 80.28125 454.519531 79.835938 460.546875 73.152344 "/>
<path style=" stroke:none;fill-rule:nonzero;fill:rgb(60.398865%,7.099915%,4.699707%);fill-opacity:1;" d="M 265.992188 161.792969 L 264.140625 161.785156 C 264.425781 161.792969 264.722656 161.792969 265.015625 161.792969 L 265.992188 161.792969 "/>
<g clip-path="url(#clip7)" clip-rule="nonzero">
<path style=" stroke:none;fill-rule:nonzero;fill:rgb(60.398865%,7.099915%,4.699707%);fill-opacity:1;" d="M 244.851563 72.671875 L 238.394531 93.695313 L 229.027344 93.695313 L 227.132813 94.023438 L 221.453125 118.679688 L 231.832031 118.679688 L 223.742188 150.5625 C 220.121094 163.9375 220.746094 173.777344 225.609375 180.15625 C 230.460938 186.527344 239.515625 189.574219 252.765625 189.710938 L 259.109375 189.710938 L 263.640625 171.992188 L 263.664063 171.875 L 265.996094 162.632813 L 265.019531 162.632813 C 264.722656 162.632813 264.429688 162.632813 264.144531 162.625 C 254.414063 162.386719 250.660156 158.171875 252.839844 149.945313 L 260.894531 118.679688 L 275.574219 118.679688 L 282.046875 93.671875 L 267.453125 93.695313 L 276.136719 58.632813 "/>
</g>
<path style=" stroke:none;fill-rule:nonzero;fill:rgb(61.199951%,8.599854%,5.899048%);fill-opacity:1;" d="M 421.609375 33.523438 C 421.609375 33.523438 509.417969 -7.933594 515.949219 28.632813 C 520.601563 54.808594 483.054688 77.171875 477.980469 81.480469 C 475.328125 83.738281 553.925781 54.253906 526.96875 11.15625 C 499.410156 -23.394531 423.160156 33.269531 421.609375 33.523438 "/>
</g>
</svg>
