<?xml version="1.0" encoding="UTF-8" standalone="no"?>
<svg
   xmlns:dc="http://purl.org/dc/elements/1.1/"
   xmlns:cc="http://creativecommons.org/ns#"
   xmlns:rdf="http://www.w3.org/1999/02/22-rdf-syntax-ns#"
   xmlns:svg="http://www.w3.org/2000/svg"
   xmlns="http://www.w3.org/2000/svg"
   viewBox="0 0 699.99997 655"
   height="655"
   width="700"
   xml:space="preserve"
   version="1.1"
   id="svg2"><metadata
     id="metadata8"><rdf:RDF><cc:Work
         rdf:about=""><dc:format>image/svg+xml</dc:format><dc:type
           rdf:resource="http://purl.org/dc/dcmitype/StillImage" /><dc:title></dc:title></cc:Work></rdf:RDF></metadata><defs
     id="defs6" /><g
     transform="matrix(1.25,0,0,-1.25,0,655.00002)"
     id="g10"><g
       transform="matrix(8.1834337,0,0,8.1954393,-6195.3959,-459.93213)"
       id="g16276"><path
         id="path11632"
         style="fill:#b5121b;fill-opacity:1;fill-rule:nonzero;stroke:none"
         d="m 822.1455,95.2295 c -0.126,0 -0.215,0.021 -0.201,0.046 0.014,0.025 -0.073,0.045 -0.2,0.045 l -5.947,0 5.367,24.738 -11.117,0 -4.803,-24.708 c -0.074,-0.018 -0.15,-0.03 -0.211,-0.03 l -1.134,0 c -0.124,0 -0.224,0.046 -0.224,0.101 0.002,0.058 -0.053,0.151 -0.139,0.085 -0.088,-0.06 -0.514,-0.186 -0.641,-0.186 l -0.983,0 -5.318,24.738 -9.097,0 -0.672,-3.14 0,-9.714 c 0,0 0,-1.346 -0.091,-0.962 l -0.36,-0.77 c 0,-0.754 0.077,-6.279 0.031,-10.152 l -0.572,0 0,11.787 c 0,0.577 0.269,0.482 0.451,0.866 -0.25,1.333 -0.41,2.695 -0.508,4.055 l -3.527,-16.459 c -0.042,0.031 -0.098,0.055 -0.167,0.055 l -5.042,0 -3.932,20.223 -11.117,0 4.386,-20.223 -2.664,0 -2.099,-0.038 c -0.125,0.019 -0.198,-2.795 -0.161,-2.894 l 0.938,-1.663 c 0.099,-0.065 0.475,1.172 0.481,1.068 l 0.346,-6.695 c -0.034,-0.102 -0.163,-2.525 -0.287,-2.525 l -1.419,6.649 c 0,0 -0.623,-0.465 -0.634,-0.569 0,0 -0.87,-6.831 -0.969,-6.768 l -1.186,1.292 c -0.057,0.093 -1.035,0.075 -1.078,-0.021 0,0 -0.689,-2.364 -0.565,-2.364 l 5.61,0 c 0.125,0 0.217,0.084 0.204,0.188 -0.013,0.1 0.044,0.36 0.157,0.36 0.112,0 0.194,-0.078 0.18,-0.177 -0.011,-0.095 0.081,-0.175 0.207,-0.175 l 1.019,0 c 0.124,0 0.213,0.056 0.196,0.119 -0.018,0.066 -0.016,0.233 0.044,0.233 0.061,0 0.11,-0.085 0.11,-0.186 l 0,-0.566 c 0,-0.104 0.102,-0.188 0.228,-0.188 l 4.581,0 5.334,-24.584 9.771,0 1.252,6.456 0,9.079 c 0,1.205 0.181,2.497 0.181,3.788 0,-1.499 0.332,-7.25 0.42,-9.792 l 2.925,15.053 4.976,0 3.961,-20.369 9.771,0 4.42,20.369 4.819,0 c 0.127,0 0.228,0 0.228,0.003 0,0 0.104,0.002 0.229,0.002 l 2.224,0.03 c 0.122,-0.02 0.223,0.049 0.223,0.153 l 0,2.375 -1.076,2.034 -0.076,-0.671 -0.43,-0.4 0.766,2.735 -0.598,1.015 -0.52,-0.612 -0.609,1.796 0.251,0.789 0.34,0.104 0,0.871 0.903,0.011 1.593,-3.568 0.736,-0.706 c 0,0 -0.186,1.974 -0.166,2.076 l 0.505,-0.331 0.285,5.652 c 0.006,0.103 1.666,-1.208 1.666,-1.208 l 1.576,2.375 -3.351,0 z" /><g
         id="g16267"><path
           d="m 769.8877,94.165 1.549,0 1.277,-7.676 0.031,0 1.048,7.676 1.763,0 -1.93,-12.048 -1.582,0 -1.367,7.957 -0.029,0 -1.278,-7.957 -1.58,0 -2.082,12.048 1.764,0 1.154,-7.676 0.031,0 1.231,7.676 z"
           style="fill:#ffffff;fill-opacity:1;fill-rule:nonzero;stroke:none"
           id="path11636" /><path
           id="path11638"
           style="fill:#ffffff;fill-opacity:1;fill-rule:nonzero;stroke:none"
           d="m 777.012,94.165 1.885,0 0,-12.048 -1.885,0 0,12.048 z" /><path
           d="m 780.9775,82.1172 0,12.048 1.747,0 2.294,-6.892 0.03,0 0,6.892 1.703,0 0,-12.048 -1.641,0 -2.402,7.525 -0.03,0 0,-7.525 -1.701,0 z"
           style="fill:#ffffff;fill-opacity:1;fill-rule:nonzero;stroke:none"
           id="path11642" /><path
           d="m 790.2734,86.5879 1.521,0 -0.746,5.173 -0.028,0 -0.747,-5.173 z m -0.608,-4.471 -1.823,0 2.022,12.048 2.34,0 2.021,-12.048 -1.824,0 -0.335,2.669 -2.065,0 -0.336,-2.669 z"
           style="fill:#ffffff;fill-opacity:1;fill-rule:nonzero;stroke:none"
           id="path11646" /><path
           d="m 802.8691,94.165 0,-12.048 -1.64,0 0,9.411 -0.03,0 -1.702,-9.411 -0.912,0 -1.701,9.411 -0.033,0 0,-9.411 -1.639,0 0,12.048 2.476,0 1.337,-7.043 0.031,0 1.336,7.043 2.477,0 z"
           style="fill:#ffffff;fill-opacity:1;fill-rule:nonzero;stroke:none"
           id="path11650" /><path
           d="m 806.3018,86.5879 1.521,0 -0.745,5.173 -0.03,0 -0.746,-5.173 z m -0.607,-4.471 -1.825,0 2.022,12.048 2.34,0 2.02,-12.048 -1.823,0 -0.334,2.669 -2.065,0 -0.335,-2.669 z"
           style="fill:#ffffff;fill-opacity:1;fill-rule:nonzero;stroke:none"
           id="path11654" /><path
           d="m 812.8057,88.4248 -2.008,5.74 1.854,0 1.156,-3.822 0.029,0 1.049,3.822 1.857,0 -1.902,-5.74 2.127,-6.308 -1.853,0 -1.278,4.388 -0.029,0 -1.307,-4.388 -1.854,0 2.159,6.308 z"
           style="fill:#ffffff;fill-opacity:1;fill-rule:nonzero;stroke:none"
           id="path11658" /></g></g></g></svg>