<?xml version="1.0" encoding="UTF-8"?>
<svg id="Calque_2" data-name="Calque 2" xmlns="http://www.w3.org/2000/svg" viewBox="0 0 360.92 180.39">
  <defs>
    <style>
      .cls-1 {
        fill: #050053;
      }
    </style>
  </defs>
  <g id="Calque_1-2" data-name="Calque 1">
    <g>
      <polygon class="cls-1" points="158.95 132.42 142.77 132.42 145.03 123.77 187.62 123.77 185.37 132.42 169.24 132.42 156.99 179.42 146.71 179.42 158.95 132.42"/>
      <path class="cls-1" d="M211.92,122.8c13.03,0,21.05,9.06,19.9,22.65-1.73,20.38-15.6,34.94-33.03,34.94-13.03,0-20.96-9.14-19.82-22.65,1.73-20.38,15.52-34.94,32.95-34.94M200.49,171.49c10.2,0,19.46-11.08,20.66-25.16.76-8.9-3.54-14.64-10.92-14.64-10.13,0-19.46,11.08-20.66,25.16-.75,8.82,3.54,14.64,10.92,14.64"/>
      <path class="cls-1" d="M279.74,160.25c-3.25,12.38-13.66,20.14-26.61,20.14-11.38,0-18.7-7.36-17.81-17.8.14-1.7.45-3.4.92-5.26l8.75-33.57h10.28l-8.75,33.57c-.35,1.37-.61,2.59-.71,3.8-.52,6.07,2.9,10.35,9.02,10.35,6.98,0,12.98-4.93,14.95-12.46l9.19-35.27h10.28l-9.51,36.48Z"/>
      <path class="cls-1" d="M309.29,158.79h-9.08l-5.38,20.62h-10.03l14.5-55.65h20.33c9.89,0,15.68,5.74,14.9,14.88-.74,8.66-6.93,16.02-15.4,18.69l6.84,22.08h-10.6l-6.1-20.62ZM302.4,150.38h9.17c6.98,0,12.01-4.61,12.52-10.68.4-4.69-2.58-7.52-7.84-7.52h-9.11l-4.74,18.2Z"/>
      <path class="cls-1" d="M352.55,12.08C344.64,3.92,332.62,0,312.99,0h-35.76l-6.65,25.51c15.44-.26,31.31-.14,47.56.44,6.53.35,11.49,2.81,12.82,7.65,1.34,4.93-1.05,10.41-5.95,14-3.28,2.4-7.03,3.76-13.53,3.76-3.37,0-38.54-.3-47.61-.08l-15.25,58.5h35.6l7.77-29.8h15.06c33.78,0,53.86-18.35,53.86-45.79,0-8.63-2.74-16.31-8.37-22.11"/>
      <path class="cls-1" d="M149.91,35.15c-23.57,3.22-48.39,7.38-72.92,12.67L108.84,0h35.94l5.13,35.15Z"/>
      <path class="cls-1" d="M160.79,109.77h-37.89l-2.31-19.22h-33.93l-12.14,19.22h-38.8l12.73-19.22H0c47.22-14.6,103.61-24.59,153.49-30.84l7.3,50.05Z"/>
      <path class="cls-1" d="M187.99,55.86c13.09-1.29,25.34-2.29,36.39-3.02l-14.84,56.94h-35.61l14.05-53.91Z"/>
      <path class="cls-1" d="M269.19,0l-6.67,25.6c-22.77.5-59.01,2.78-100.07,7.92L171.19,0h98Z"/>
      <path class="cls-1" d="M314.95,100.52c2.63,0,4.49,1.91,4.49,4.63s-1.86,4.63-4.49,4.63-4.49-1.92-4.49-4.63,1.86-4.63,4.49-4.63M314.95,109.04c2.21,0,3.78-1.61,3.78-3.9s-1.57-3.89-3.78-3.89-3.78,1.61-3.78,3.89,1.57,3.9,3.78,3.9M313.47,102.63h1.63c.98,0,1.65.65,1.65,1.57,0,.69-.4,1.23-1.04,1.46l1.19,2h-.86l-1.11-1.89h-.67v1.89h-.79v-5.04ZM314.26,105.13h.71c.58,0,.96-.41.96-.93s-.38-.93-.96-.93h-.71v1.85Z"/>
    </g>
  </g>
</svg>