<?xml version="1.0" encoding="UTF-8"?>
<svg id="Calque_2" data-name="Calque 2" xmlns="http://www.w3.org/2000/svg" viewBox="0 0 2540.42 3174.62">
  <defs>
    <style>
      .cls-1 {
        fill: #ff5101;
      }
    </style>
  </defs>
  <g id="Capa_1" data-name="Capa 1">
    <g>
      <g>
        <path class="cls-1" d="M2022.96,722.71c-3.36-14.86-16.27-18.43-26.12-19.39-27.42-3.27-53.39-6.86-78.04-10.6-77.85-13.23-201.52-40.93-336.36-95.33-147.55-59.53-322.34-156.72-404.35-254.9-31.91-39.2-51.02-78.1-50.81-114.38,0,0-23.04-184.57,302.43-84.54,1.62,3.36,114.98,326.93,502.01,369.72,23.85,2.65,47.2.36,49.63-12.01C1877.12,209.13,1598.04,0,1270.09,0c-206.4,0-393.45,82.85-529.74,217.11-3.38,3.68-6.69,7.33-9.94,10.97-18.19,20.78-67.37,79.13-67.57,146.44-.17,80.82,94.07,151.78,209.11,208.32h.66s257.42,125.64,437.97,165.53v.02c10.43,1.84,11.12,4.08,11.09,6.97-.02,4.21-2.97,4.4-7.61,5.94-170.49,35.95-440.88,165.4-441.54,165.72-.19.11-209.6,92.92-209.6,208.56,0,67.31,49.33,125.66,67.52,146.42,3.25,3.68,6.54,7.33,9.92,10.99,136.29,134.26,323.34,217.08,529.72,217.08,327.96,0,607.05-209.11,711.3-501.27-2.44-12.38-25.78-14.64-49.63-12.03-387.06,42.84-500.41,366.39-502.04,369.77-325.48,100.06-302.43-84.54-302.43-84.54-.75-131.88,251.73-301.3,455.44-386.4,26.72-11.16,199-77.08,422.16-103.22,14.32-1.2,19.32-13.47,19.94-25.44.94-17.4.75-28.98-1.86-44.22"/>
        <path class="cls-1" d="M951.37,761.29c-.21,0,7.99-1.71,7.99-5.94s-9.9-6.99-9.9-6.97v-.02c-48.16-16.93-117.01-44.63-175.34-72.55-105.42-54.74-188.55-121.94-188.55-197.89,0-6.65-6.43-7.65-9.64-7.65-5.54,0-8.87,8.89-8.87,8.89-33.56,85.44-51.98,178.5-51.98,275.89s18.43,190.45,51.98,275.91c0,0,3.33,8.85,8.87,8.85,3.21,0,9.64-.98,9.64-7.65,0-76.95,85.37-144.97,192.82-200.11,56.88-27.45,117.09-54.4,172.97-70.75"/>
      </g>
      <g>
        <path d="M2533.47,2856.45c-4.62-11.16-11.59-21.03-20.73-29.39-9.15-8.4-20.67-15.11-34.2-19.96-13.57-4.83-29.48-7.31-47.26-7.33-19.09-.04-36.68,3.08-52.28,9.28-15.58,6.18-29.11,15.05-40.21,26.38-11.09,11.33-19.81,25.12-25.91,40.98-6.13,15.86-9.26,33.88-9.3,53.54-.04,21.2,3.25,39.86,9.77,55.43,6.52,15.58,15.73,28.69,27.38,38.9,11.63,10.24,25.5,17.98,41.25,23.02,15.82,5,33.28,7.44,51.94,7.63,18.38.19,38.88-1.54,59.94-7.57,13.64-3.89,20.65-9.28,23.36-12.29,2.2-2.42,3.78-5.15,4.77-8.17.79-2.37,1.18-4.94,1.18-7.65.02-6.31-1.56-11.99-4.68-16.93-2.91-4.66-6.24-8.19-9.92-10.5,0-.02-.06-.06-.06-.06-.04.02-.19.06-.23.09-3.36,1.33-9.45,3.18-18.7,5.71-10.97,3.01-26.89,6.35-47.28,6.31-20.54-.02-37.34-4.72-49.87-13.89-12.59-9.21-20.46-20.63-23.38-33.96l-.41-1.86,97.06.19c14.13.02,26.06-1.43,35.5-4.36,9.4-2.91,17.04-7.1,22.72-12.42,5.69-5.34,9.9-11.91,12.48-19.52,2.65-7.67,4-16.46,4.02-26.1.02-12.44-2.31-24.39-6.95-35.48M2475.59,2906.25c-3.55,4.7-10.65,6.99-21.7,6.97l-86.72-.17v-1.52c.02-7.37,1.35-15.18,3.93-23.23,2.56-8.02,6.52-15.52,11.71-22.29,5.17-6.78,11.76-12.46,19.54-16.95,7.82-4.53,17.04-6.82,27.4-6.8,9.36.02,17.4,1.43,23.9,4.19,6.5,2.78,11.78,6.35,15.73,10.6,3.91,4.25,6.8,9.08,8.61,14.32,1.84,5.34,2.69,10.17,2.69,14.77-.02,8.81-1.73,15.58-5.11,20.11"/>
        <path d="M1449.9,2856.45c-4.62-11.16-11.59-21.03-20.73-29.39-9.15-8.4-20.67-15.11-34.2-19.96-13.57-4.83-29.48-7.31-47.26-7.33-19.09-.04-36.66,3.08-52.28,9.28-15.58,6.18-29.11,15.05-40.21,26.38-11.09,11.33-19.81,25.12-25.91,40.98-6.13,15.86-9.26,33.88-9.3,53.54-.04,21.2,3.25,39.86,9.77,55.43,6.52,15.58,15.73,28.69,27.38,38.9,11.63,10.24,25.5,17.98,41.25,23.02,15.82,5,33.28,7.44,51.94,7.63,18.38.19,38.88-1.54,59.94-7.57,13.64-3.89,20.65-9.28,23.36-12.29,2.2-2.42,3.78-5.15,4.77-8.17.79-2.37,1.18-4.94,1.18-7.65.02-6.31-1.56-11.99-4.68-16.93-2.91-4.66-6.24-8.19-9.92-10.5,0-.02-.06-.06-.06-.06-.04.02-.19.06-.23.09-3.36,1.33-9.45,3.18-18.7,5.71-10.97,3.01-26.89,6.35-47.28,6.31-20.54-.02-37.34-4.72-49.87-13.89-12.59-9.21-20.46-20.63-23.38-33.96l-.41-1.86,97.06.19c14.13.02,26.06-1.43,35.5-4.36,9.4-2.91,17.04-7.1,22.72-12.42,5.69-5.34,9.9-11.91,12.48-19.52,2.65-7.67,4-16.46,4.02-26.1.02-12.44-2.31-24.39-6.95-35.48M1392.02,2906.25c-3.55,4.7-10.65,6.99-21.7,6.97l-86.72-.17v-1.52c.02-7.37,1.35-15.18,3.93-23.23,2.56-8.02,6.52-15.52,11.73-22.29,5.15-6.78,11.74-12.46,19.52-16.95,7.82-4.53,17.04-6.82,27.4-6.8,9.36.02,17.4,1.43,23.92,4.19,6.48,2.78,11.76,6.35,15.71,10.6,3.91,4.25,6.8,9.08,8.61,14.32,1.84,5.34,2.69,10.17,2.69,14.77-.02,8.81-1.73,15.58-5.11,20.11"/>
        <path d="M1695.75,2853.88c-6.2-13.23-15.07-23.98-26.38-31.96-11.39-7.99-25.16-13.72-40.87-16.99-15.82-3.31-33.58-5-52.73-5-9.98,0-19.94.64-29.56,1.9-9.51,1.26-18.02,3.4-25.31,6.37-7.22,2.93-13.06,6.82-17.33,11.59-4.15,4.64-6.26,10.35-6.26,16.93s1.69,12.8,5.02,18.06c3.1,5.02,6.67,8.81,10.6,11.29,2.18-1.3,4.85-2.97,7.95-5.02,3.74-2.46,8.31-4.92,13.55-7.31,5.3-2.42,11.71-4.55,19.09-6.31,7.4-1.8,16.01-2.69,25.59-2.69,21.5,0,37.66,4.15,48.09,12.31,10.47,8.27,15.77,20.28,15.77,35.7v9.51l-1.8-.34c-.94-.17-4.32-.62-16.52-1.65-9.47-.79-21.44-1.18-35.57-1.18-15.01,0-28.45.86-40.16,2.54-.09.02-.15.02-.23.04-.17.02-.36.04-.56.09-.9.11-1.8.26-2.69.38-.17.04-.36.06-.56.11-.04,0-.09,0-.15.02-1.8.3-3.55.64-5.26.98-.43.09-.83.17-1.24.26-.58.13-1.13.26-1.69.38-19.47,4.66-31.81,13.25-39.59,22.89-9.36,11.61-12.08,24.73-12.61,34.26,0,.73-.02,1.45-.02,2.18,0,3.78.21,7.52.64,11.2v.04c1,8.53,3.12,16.76,6.37,24.56,4.64,11.24,11.65,21.2,20.8,29.63,9.19,8.44,20.71,15.2,34.26,20.05,12.53,4.49,36.77,7.16,51.68,7.16,26.89,0,47.05-2.22,65.45-3.95,11.24-1.05,23.71-3.23,29.84-4.13,5.32-.77,7.95-1.2,9.23-1.45l1.86-141.99c.26-20.07-2.5-37.13-8.72-50.47M1642.51,3008.93l-1.2.26c-3.31.73-9.06,2.03-16.31,2.65-7.78.68-15.58.96-23.02.94h-.83c-4.32-.09-8.31-.34-12.06-.77-.21-.02-.45-.06-.66-.09-.06,0-.13,0-.21-.02-.36-.04-.75-.09-1.11-.13-28.11-3.7-39.42-16.46-44.16-27.57-1.62-3.78-4.49-15.05.96-26.21.66-1.18,1.41-2.33,2.24-3.44,2.33-3.06,5.54-5.88,9.92-8.42,2.91-1.69,6.01-3.1,9.21-4.32,2.69-1,5.49-1.86,8.31-2.59,5.62-1.39,11.41-2.24,17.14-2.69,4.47-.34,8.91-.45,13.21-.38,14.39.21,27.1,2.37,33.71,3.72,1.8.24,3.01.47,3.78.73l1.07.34v67.99Z"/>
        <path d="M1206.87,2998.39c-9.75-9.45-23.92-9.06-24.13-9.13h-124.25v-260.37c0-6.75-4.68-8.08-9.08-8.08h-20.11c-25.16,0-37.38,11.73-37.38,35.85v290.42h224.25v-23.15c0-10.99-3.12-19.58-9.28-25.54"/>
        <path d="M452.71,2805.76c-10.24,0-18.51,2.01-24.65,5.96-5.92,3.85-8.93,11.01-8.93,21.27v165.57l-1.09.32c-2.27.66-5.64,1.24-10.35,1.75-4.64.47-11.48.71-20.37.71-24.32,0-42.15-5.3-52.97-15.77-10.84-10.5-16.33-25.86-16.33-45.68v-128.83c-1.88-.62-5.39-1.6-10.62-2.97-6.14-1.54-12.87-2.33-20.01-2.33-10.24,0-18.53,2.01-24.65,5.96-5.92,3.85-8.91,11.01-8.91,21.27v113.59c0,35.18,11.2,62.12,33.32,80.09,22.19,18.06,57.99,27.21,106.43,27.21,11.31,0,22.19-.3,32.32-.94,10.43-.64,19.86-1.28,28.37-1.92,8.34-.64,15.35-1.35,20.82-2.14,4.19-.62,6.84-1.07,8.27-1.37v-236.45c-1.9-.62-5.41-1.62-10.62-2.97-6.18-1.54-12.91-2.33-20.03-2.33"/>
        <path d="M684.4,2814.81c-3.36-3.93-7.99-7.18-13.83-9.64-5.94-2.48-12.93-4.38-20.82-5.64-7.8-1.26-16.29-1.88-25.2-1.88-14.56,0-28.17,1.35-40.53,4.02-12.4,2.71-23.43,5.75-32.75,9.06-9.41,3.36-17.01,6.63-22.59,9.7-4.92,2.74-8.19,4.66-9.77,5.69v221.08h64.21v-185.88l.77-.43c3.01-1.65,8.27-3.85,15.63-6.56,7.48-2.78,18.17-4.17,31.76-4.17,4.42,0,9.13.32,14.34.96,5.34.73,9.88,1.6,13.89,2.67,4.42,1.2,8.06,2.31,11.18,3.42,2.5.88,4.34,1.69,5.6,2.5,2.31-2.5,5-5.94,8.02-10.32,3.33-4.85,5.02-11.65,5.02-20.24,0-5.73-1.6-10.41-4.94-14.34"/>
        <path d="M923.84,2835.27c-11.44-11.44-25.41-20.67-41.55-27.47-16.1-6.75-34.33-10.17-54.19-10.17s-38.09,3.42-54.19,10.17c-16.12,6.8-30.12,16.03-41.57,27.47-11.48,11.48-20.44,25.16-26.55,40.72-6.18,15.6-9.3,32.58-9.3,50.49s3.12,34.88,9.3,50.49c6.11,15.54,15.07,29.24,26.55,40.7,11.5,11.46,25.48,20.71,41.6,27.47,16.1,6.8,34.31,10.22,54.16,10.22s38.07-3.42,54.19-10.22c16.1-6.75,30.1-16.01,41.55-27.47,11.48-11.41,20.41-25.12,26.59-40.7,6.13-15.6,9.26-32.6,9.26-50.49s-3.12-34.88-9.26-50.49c-6.18-15.6-15.13-29.28-26.59-40.72M890.37,2957.34c-2.78,9.6-7.08,18-12.78,24.99-5.69,7.01-12.74,12.63-20.93,16.72-8.21,4.08-17.83,6.13-28.56,6.13s-20.35-2.05-28.56-6.13c-8.19-4.08-15.22-9.7-20.9-16.72-5.71-6.95-10.02-15.35-12.83-24.99-2.74-9.49-4.13-19.88-4.13-30.87s1.39-21.35,4.13-30.87c2.8-9.64,7.14-18.04,12.83-24.99,5.66-6.99,12.7-12.61,20.9-16.72,8.23-4.08,17.83-6.13,28.56-6.13s20.33,2.05,28.56,6.13c8.21,4.1,15.26,9.73,20.93,16.72,5.71,6.97,10,15.37,12.78,24.99,2.76,9.58,4.15,19.94,4.15,30.87s-1.39,21.31-4.15,30.87"/>
        <path d="M2243,2808.11c-10.11,0-18.32,1.99-24.39,5.92-5.86,3.78-8.81,10.86-8.81,21.03v163.99l-1.11.32c-2.35.68-5.81,1.26-10.26,1.73-4.49.47-11.09.71-20.16.71-24.07,0-41.72-5.26-52.45-15.63-10.73-10.35-16.18-25.56-16.18-45.25v-127.61c-1.99-.66-5.71-1.65-10.52-2.91-6.11-1.54-12.78-2.31-19.86-2.31-10.11,0-18.32,1.99-24.39,5.92-5.86,3.78-8.83,10.86-8.83,21.03v112.5c0,34.84,11.12,61.52,33,79.3,21.97,17.89,57.46,26.98,105.42,26.98,10.99,0,21.76-.32,32.04-.96,10.28-.62,19.64-1.26,28.07-1.9,8.59-.66,15.33-1.35,20.61-2.09,4.1-.6,6.75-1.07,8.21-1.37v-234.18c-2.24-.73-6.52-1.86-10.54-2.91-6.07-1.54-12.76-2.31-19.86-2.31"/>
        <path d="M0,2765.44v245.9c0,24.13,12.23,35.87,37.38,35.87h191.67c-.15-29.5-4.79-57.82-51.49-57.82h-110.94v-75.45l97.36-.02c1.75-.06,3.12-1.47,3.12-3.21l11.93-51.54c-.09-1.71-1.47-3.06-3.16-3.06h-109.25v-77.38h126.58c24.13,0,35.85-12.23,35.85-37.38v-20.43H38.03c-18.36,0-38.03,17.89-38.03,44.52"/>
        <path d="M1997.84,2808.24c-3.78-.56-8.53-1.07-13.68-1.56-35.65-4.42-66.37-6.01-87.1-6.52l.02-.06c-2.84-.06-5.77-.09-8.66-.11-1.28,0-2.5-.04-3.78-.04h-9.51c-4.02.04-6.18.11-6.18.11v.17c-5.13.17-10.13.6-15.03,1.22-11.82,1.52-23.06,4.19-33.43,8.27-16.33,6.43-30.57,15.56-42.26,27.08-11.71,11.52-21.01,25.46-27.64,41.4-.88,2.12-1.54,4.34-2.31,6.52-5.02,14.32-7.69,30.03-7.69,47,0,19.66,2.89,37.41,8.57,52.75,5.69,15.2,13.77,28.17,24.05,38.58,10.35,10.41,22.83,18.43,37.09,23.81,14.45,5.45,30.54,8.23,47.79,8.23,9.73,0,18.6-1.15,26.33-3.4,7.91-2.31,14.9-4.98,20.73-7.93,5.77-2.93,10.43-5.81,13.85-8.61,3.7-2.99,6.2-5.22,7.67-6.75l12.65-13.17v24.41c0,14.3-2.09,26.59-6.18,36.49-4.17,10.02-10.02,18.4-17.44,24.92-7.42,6.54-16.39,11.24-26.74,13.96-17.57,4.66-41.17,5.19-63.21,1.47-9.45-1.62-17.87-3.46-24.97-5.45-5.75-1.58-10.69-3.16-14.81-4.66-1.73-.94-3.14-1.73-4.23-2.39-.02-.02-.17-.09-.19-.11l-.09.02c-3.93,1.62-7.74,4.45-11.31,8.42-3.87,4.19-6.35,9.41-7.42,15.45-.47,2.63-.53,5.17-.19,7.59.09.6.19,1.18.32,1.77,0,0,0,.02.02.09.13.62.3,1.24.49,1.84-.02.04-.06.11-.09.15.45,1.65,1.37,4.15,3.23,7.08,1.8,2.82,4.47,6.07,8.46,9.3,8.27,6.67,22.12,13.32,45.34,16.39,8.46,1.13,16.97,1.92,25.48,2.35,44.12,2.09,87.68-6.54,118.87-37.45.17-.17.34-.32.51-.49,1.18-1.18,2.31-2.29,3.4-3.36,11.2-11.63,20.18-26.33,26.72-43.8,7.05-18.85,10.62-41.72,10.62-68.02v-13.15s.04-.11.04-.11v-198.32c-1.39-.3-4.02-.77-8.14-1.41M1871.42,3005.18c-19.45,0-35.74-5.86-48.37-17.38-12.98-11.8-19.54-29.54-19.54-52.75,0-42.19,24.22-88.96,119.17-77.53,5.34.64,10.9,1.41,16.65,2.59v68.53c0,20.88-13.98,76.54-67.91,76.54"/>
        <path d="M78.02,2856.11h107.65c11.35,0,19.28,2.44,23.75,7.29,4.49,4.85,6.73,11.82,6.73,20.93,0,6.99-.98,13.21-2.91,18.66-1.95,5.47-3.53,9.11-4.72,10.92H78.02"/>
      </g>
      <g>
        <g>
          <polygon points="2378.68 2084.5 2378.68 1920.79 2214.56 1920.79 2214.56 2084.5 2124.45 2084.5 2124.45 1694.58 2214.56 1694.58 2214.56 1849.94 2378.68 1849.94 2378.68 1694.58 2469.45 1694.58 2469.45 2084.5 2378.68 2084.5"/>
          <path d="M437.02,1694.59v244.11c0,26.98,3.97,50.32,11.81,69.32,7.79,18.83,19.08,34.47,33.55,46.52,14.62,12.14,32.26,21.11,52.4,26.62,20.45,5.65,43.55,8.52,68.63,8.52s47.95-2.87,67.99-8.51c19.71-5.53,36.53-14.45,50-26.52,13.48-12.03,24.05-27.69,31.44-46.55,7.42-18.93,11.18-42.28,11.18-69.41v-244.11h-84.31v241.52c0,24.6-6.11,44.46-18.15,59.05-12.31,14.85-31.87,22.37-58.14,22.37s-45.25-7.5-57.75-22.33c-12.28-14.54-18.52-34.42-18.52-59.09v-241.52h-90.11Z"/>
          <path d="M177.15,2084.56v-317.16h-105.94v-72.81h302.62v34.92c0,20.9-16.99,37.89-37.88,37.89h-68.69v317.16h-90.1Z"/>
          <rect x="1625.24" y="1694.54" width="90.11" height="389.94"/>
          <path d="M1325.13,1902.68l3.06,3.86,115.09,148.34c14.65,18.88,36.76,29.72,60.66,29.72h71.76l-164.9-209.76-2.43-3.08,2.41-3.09,135.59-174.24h-93.77l-124.34,168.08-3.13,4.05-.03-7.04v-165.09h-90.11v389.94h90.11v-174.75l.03-6.94Z"/>
          <path d="M1117.53,2084.44c-26.69,0-51.85-14.18-65.66-36.99l-70.1-115.75h-44.44v152.75h-90.05v-389.86h160.56c41.25,0,73.55,10.77,96.01,32,22.4,21.19,33.74,50.22,33.74,86.24,0,18.31-4.87,36.84-14.5,55.11-9.48,17.94-26.3,32.64-49.99,43.67l-5.21,2.42,109.39,170.41h-59.76ZM937.33,1873.04h52.54c18.9,0,33.31-5.19,42.83-15.4,9.4-10.11,14.16-23.25,14.16-39.05s-4.65-29.49-13.8-39.6c-9.29-10.27-23.82-15.47-43.18-15.47h-52.54v109.53Z"/>
          <path d="M1789.31,2067.94v-74.75c28.68,13.19,65.63,26.38,103.86,26.38,43.97,0,66.27-15.08,66.27-43.98,0-33.91-29.95-37.68-89.84-63.43-40.78-18.22-79.65-46.49-79.65-111.81,0-76.01,57.98-111.81,138.27-111.81,42.69,0,79.01,10.04,99.4,17.59v72.85c-20.39-9.41-56.71-20.72-93.03-20.72-39.5,0-57.98,14.45-57.98,39.57,0,26.38,22.3,34.56,62.44,49.63,51.61,25.75,111.51,37.07,111.51,125,0,76.01-60.53,117.47-141.46,117.47-49.7,0-89.2-8.79-119.79-21.98Z"/>
        </g>
        <g>
          <path d="M1930.09,2593.42v-389.94h244.18v35.37c0,20.64-16.79,37.44-37.43,37.44h-116.64v83.86h130.97v65.09h-130.97v95.41h154.07v72.78h-244.18Z"/>
          <path d="M1039.23,2593.38v-389.92h43.79c25.54,0,46.31,20.78,46.31,46.31v273.39h143.82v70.22h-233.92Z"/>
          <polygon points="481.45 2593.34 481.45 2203.66 571.55 2203.66 571.54 2593.34 481.45 2593.34"/>
          <path d="M924.45,2593.34c-26.69,0-51.85-14.18-65.66-36.99l-70.1-115.75h-44.44v152.75h-90.05v-389.86h160.56c41.25,0,73.55,10.77,96.01,32,22.4,21.19,33.74,50.22,33.74,86.24,0,18.31-4.87,36.84-14.5,55.11-9.48,17.94-26.3,32.64-49.99,43.67l-5.21,2.42,109.39,170.41h-59.76ZM744.25,2381.94h52.54c18.9,0,33.31-5.19,42.83-15.4,9.4-10.11,14.16-23.25,14.16-39.05s-4.65-29.49-13.8-39.6c-9.29-10.27-23.82-15.47-43.18-15.47h-52.54v109.53Z"/>
          <path d="M283.08,2203.45h-103.48l-147.06,389.94h64.93c16.48,0,31.02-10.51,36.19-26.16l15.1-45.74h158.15l23.14,71.9h97.6l-144.57-389.94ZM171.74,2451.33l35.38-98.56c7.87-22.17,15.74-45.57,20.97-62.81h1.32c4.59,17.86,12.45,40.04,20.31,62.81l34.08,98.56h-112.06Z"/>
          <path d="M2246.64,2576.89v-74.75c28.68,13.19,65.63,26.38,103.86,26.38,43.97,0,66.27-15.08,66.27-43.98,0-33.91-29.95-37.68-89.84-63.43-40.78-18.22-79.65-46.49-79.65-111.81,0-76.01,57.98-111.81,138.27-111.81,42.69,0,79.01,10.04,99.4,17.59v72.85c-20.39-9.41-56.71-20.72-93.03-20.72-39.5,0-57.98,14.45-57.98,39.57,0,26.38,22.3,34.56,62.44,49.63,51.61,25.75,111.51,37.07,111.51,125,0,76.01-60.53,117.47-141.46,117.47-49.7,0-89.2-8.79-119.79-21.98Z"/>
          <path d="M1503.74,2203.52h55.84c26.52,0,51.16,13.69,65.18,36.2l108.75,174.7c12.29,19.41,26.53,45.06,34.94,63.22h1.95c-1.3-17.52-1.95-41.94-1.95-59.46v-214.66h78.97v389.9h-98.79l-132.28-210.92c-12.3-19.39-25.24-42.55-34.31-60.07h-1.29c.65,16.89,1.94,36.93,1.94,55.69v215.3h-78.96v-389.9Z"/>
          <polygon points="1331.12 2593.34 1331.12 2203.66 1421.23 2203.66 1421.22 2593.34 1331.12 2593.34"/>
        </g>
      </g>
    </g>
  </g>
</svg>