<?xml version="1.0" encoding="UTF-8"?>
<svg id="Capa_2" data-name="Capa 2" xmlns="http://www.w3.org/2000/svg" viewBox="0 0 427.32 326.39">
  <g id="Layer_1" data-name="Layer 1">
    <g>
      <path d="M0,300.4v-56.16H15.4v57.5h27.21v14.37H8.93l-6.06-7.49c-2.05-2.67-2.88-5.13-2.88-8.21"/>
      <path d="M87.79,291.46l-8.11-32.86h-1.64l-8.11,32.86h17.87Zm-36.86,12.94l16.63-60.17h17.66c3.29,0,5.34,1.54,6.26,4.83l15.3,55.34c.72,2.46,.82,4.11,.82,7.29v4.42h-13.66l-5.44-21.87-22.08,11.29-2.67,10.58h-13.66v-4.42c0-3.18,.1-4.83,.82-7.29"/>
      <path d="M114.59,300.4v-56.16h15.4v57.5h27.21v14.37h-33.68l-6.06-7.49c-2.05-2.67-2.88-5.13-2.88-8.21"/>
      <rect x="165.93" y="244.23" width="15.4" height="71.87"/>
      <path d="M191.8,293.29v-26.24c0-15.3,8.32-23.62,23.62-23.62h6.74c15.09,0,23.62,7.7,23.62,21.36h-15.4v-2.88c0-2.67-1.44-4.11-4.11-4.11h-14.96c-2.67,0-4.11,1.44-4.11,4.11v36.51c0,2.67,1.44,4.11,4.11,4.11h14.96c2.67,0,4.11-1.44,4.11-4.11v-9.04h-10.68v-14.37h17.15l6.06,7.49c2.05,2.57,2.88,4.93,2.88,8.21v2.57c0,15.3-8.32,23.62-23.62,23.62h-6.74c-15.3,0-23.62-8.32-23.62-23.62"/>
      <path d="M288.1,291.46l-8.11-32.86h-1.64l-8.11,32.86h17.87Zm-36.86,12.94l16.63-60.17h17.66c3.29,0,5.34,1.54,6.26,4.83l15.3,55.34c.72,2.46,.82,4.11,.82,7.29v4.42h-13.66l-5.44-21.87-22.08,11.29-2.67,10.58h-13.66v-4.42c0-3.18,.1-4.83,.82-7.29"/>
      <path d="M388.25,289.23h-2.89s0,3.57,0,3.57h2.89c.25,0,.47-.09,.63-.27,.16-.19,.24-.44,.24-.73v-1.54c0-.3-.07-.54-.23-.74-.16-.19-.37-.29-.63-.29"/>
      <path d="M377.37,289.21h-2.12c-.28,0-.49,.09-.65,.28-.16,.2-.24,.44-.24,.74v6.4c0,.29,.07,.53,.23,.73,.17,.2,.38,.3,.65,.31h2.12c.26,0,.47-.1,.63-.3,.17-.19,.25-.44,.26-.73v-6.4c.01-.3-.07-.54-.24-.74-.16-.19-.38-.29-.63-.29"/>
      <path d="M366.79,289.19h-3.01s0,3.87,0,3.87h3.01c.25,0,.47-.09,.64-.28,.17-.2,.25-.43,.25-.74v-1.82c0-.3-.08-.54-.25-.74-.16-.19-.38-.29-.63-.29"/>
      <path d="M414.06,288.87v-.75s0-.07,0-.13c-.02,.05-.03,.09-.06,.13l-.38,.59h-.04l-.39-.6s-.05-.08-.07-.12c0,.05,.02,.09,.02,.13v.74h-.2v-1.21h.21l.47,.73,.48-.73h.18v1.21h-.22Zm-1.4-1h-.47s0,1,0,1h-.24v-1s-.47,0-.47,0v-.21h1.18s0,.21,0,.21Zm-1.36,9.2c0,.74-.26,1.37-.77,1.88-.52,.52-1.15,.78-1.89,.78h-3.12c-.75,0-1.36-.26-1.87-.75-.5-.5-.75-1.11-.75-1.87v-1.24s1.93,0,1.93,0l.29,1.15c.13,.47,.46,.72,.99,.72h2.12c.27,0,.49-.09,.65-.29,.16-.19,.24-.44,.24-.73v-1.37c0-.67-.29-1.01-.88-1.01h-2.66c-.73,0-1.37-.26-1.87-.78-.51-.52-.78-1.15-.78-1.88v-1.8c0-.72,.27-1.34,.79-1.86,.51-.52,1.14-.78,1.88-.77h3.08c.74,0,1.35,.26,1.86,.75,.5,.5,.75,1.11,.75,1.86v1.12s-1.92,0-1.92,0l-.29-1.02c-.15-.48-.48-.72-.97-.72h-2.09c-.27,0-.49,.09-.65,.29-.16,.2-.24,.44-.24,.74v1.05c0,.65,.3,.98,.89,.98h2.66c.73,0,1.35,.27,1.86,.8,.54,.53,.79,1.15,.79,1.87v2.11Zm-10-7.82h-3.2s-.02,10.46-.02,10.46h-2.21s.02-10.47,.02-10.47h-3.17s0-2.02,0-2.02h8.59s0,2.03,0,2.03Zm-11.83,10.45l-2.03-4.89h-2.09s0,4.88,0,4.88h-2.21s.02-12.49,.02-12.49h5.52c.74,0,1.37,.27,1.88,.79,.51,.51,.78,1.14,.77,1.85v2.18c0,.56-.16,1.08-.47,1.54-.33,.45-.74,.77-1.22,.98l2.18,5.16h-2.35Zm-8.45-15.47l-30.09-.04,7.34-11.55h-5.37s3.66-5.78,3.66-5.78l22.38,.03-3.67,5.77-10.03-.02-3.72,5.78,16.16,.02,14.8-23.3,18.34,29.12h-6.94s-3.64-5.79-3.64-5.79l-10.87-.02,3.66-5.78h3.56s-4.13-6.57-4.13-6.57l-11.44,18.11Zm-.57,12.78c0,.76-.25,1.39-.79,1.9-.52,.52-1.14,.78-1.88,.78h-2.98c-.74,0-1.37-.27-1.89-.79-.52-.51-.78-1.14-.78-1.9v-7.18c.01-.72,.28-1.34,.79-1.85,.52-.52,1.15-.78,1.89-.77h2.98c.74,0,1.36,.26,1.88,.78,.53,.5,.78,1.14,.78,1.86v7.17Zm-10.58-4.57c0,.73-.26,1.36-.78,1.87-.53,.52-1.16,.78-1.89,.78h-3.44s0,4.58,0,4.58h-2.21s.02-12.49,.02-12.49h5.64c.73,.01,1.36,.27,1.89,.79,.51,.51,.77,1.13,.77,1.85v2.62Zm-10.91,4.55c0,.74-.26,1.37-.77,1.88-.52,.52-1.15,.78-1.87,.78h-3.13c-.74,0-1.37-.26-1.86-.75-.5-.5-.75-1.11-.74-1.87v-1.24s1.93,0,1.93,0l.28,1.15c.13,.47,.45,.72,.99,.72h2.12c.26,0,.48-.09,.65-.29,.16-.19,.24-.44,.24-.73v-1.36c0-.67-.29-1.01-.88-1.01h-2.66c-.73,0-1.36-.26-1.89-.78-.51-.52-.77-1.15-.76-1.88v-1.8c0-.72,.26-1.34,.77-1.86,.53-.52,1.16-.77,1.89-.77h3.09c.73,0,1.35,.26,1.86,.75,.5,.5,.75,1.12,.75,1.86v1.12s-1.91,0-1.91,0l-.29-1.02c-.15-.48-.48-.72-.98-.72h-2.09c-.27,0-.49,.09-.65,.29-.17,.2-.25,.44-.25,.74v1.05c0,.65,.29,.98,.89,.98h2.66c.72,0,1.34,.27,1.86,.8,.52,.53,.77,1.15,.77,1.87v2.11Zm4.88-41.68l23.76,.04-3.65,5.76-23.75-.02,3.64-5.77Zm17.31-21.37c-25.53-.04-46.25,20.63-46.29,46.15-.04,25.53,20.63,46.26,46.15,46.29,25.53,.04,46.25-20.63,46.29-46.15,.04-25.53-20.63-46.25-46.15-46.29"/>
      <path d="M152.23,172.76c0-6,2.4-12.48,6.72-18.72L267.17,0h62.63l-121.41,172.76h54.71l-84.94,43.19-18.24-23.27c-5.04-6.48-7.68-12.96-7.68-19.92m-48.23-87.82L162.79,0h56.87l-73.18,104.14h47.51l-73.9,37.67-14.88-18.96c-5.28-6.96-7.68-12.24-7.68-19.44,0-6.48,2.4-12.72,6.48-18.48"/>
    </g>
  </g>
</svg>