<?xml version="1.0" encoding="UTF-8"?>
<svg id="Logo" xmlns="http://www.w3.org/2000/svg" viewBox="0 0 529.22 255.07">
  <defs>
    <style>
      .cls-1 {
        fill: #37003c;
      }
    </style>
  </defs>
  <path class="cls-1" d="M34.74,18.59c9.86,4.51,16.18,10.22,17.33,11.08-.53-2.55-2.46-14.8-3.58-22.42,5.74,3.99,19.08,13.24,23.46,16.25C73.73,17.99,79.93,0,79.93,0c0,0,11.18,18.12,13.09,21.06,2.34-2.45,15.71-17.32,19.17-21.09.59,8.56,1.38,20.81,1.56,22.65.69-.91,5.8-8.09,14.39-14.71-3.72,7.33-5.49,17.44-6.29,25.57-8.44-2.36-17.34-3.63-26.53-3.63-17.64,0-34.19,4.65-48.5,12.78-2.6-7.84-6.67-17.6-12.08-24.05ZM169.7,173.07l-7.77-8.61c-2.22,23.25-13.6,42.99-34.51,56.75l-3.18-12.54c-17.75,12.83-48.22,21.14-74.38,6.35,3.24-16.58,6.13-33.37-.06-53.49-14.49,22.44-27.32,31.23-27.32,31.23-9.78-16.43-8.9-49.42-5.99-59.13L.2,138.68c0-11.08,7.99-34.6,19.53-47.8l-10.18-1.62h0c6.91-14.14,17.22-26.32,29.86-35.47h.01c-3.79,5.99-3.85,20.77,7.27,26.4-4.72-8.27-5.29-18.49-.37-23.8,4.94-5.33,13.23-3.5,18.52.65-1.57-4.61-6.19-10.42-13.11-10.82h0c13.06-6.72,27.88-10.51,43.59-10.51,2.93,0,5.83.13,8.7.39h0c4.56,1.84,11.26,8.27,14.39,12.27,0,0,.22-4.72-2.4-10.41,17,4.13,25.09,11.04,28.49,14.39.7,7.33,2.89,11.74,5.8,18.73-5.51-6.17-19.34-16.12-25.94-18.5,0,0-.55,6.37-2.81,9.43-13.15-9.49-19.61-11.87-19.61-11.87-14.44,2.06-23.72,7.63-28.76,12.01l4.39,3.74c-8.7,2.68-14.35,10.16-14.35,10.16.06.13,7.77,1.23,7.77,1.23,0,0-.79,9.06,10.56,14.74,9.71,4.86,23.69-1.17,36.84,4.11-8.66-9.99-14.62-14.45-14.62-14.45,0,0-3.44-.72-5.86-.7-3.02.02-7.52.62-12.47-1.31-2.36-.92-5.11-2.55-7.27-3.9,0,0,6.07-6.24,14.94-7.62,0,0,8,2.25,14.34,6.94,4.22-4.1,8.61-3.98,8.61-3.98,0,0-4.35,4.08-3.04,9,6.34,5.65,13.21,13.73,13.21,13.73,7-3.84,22.21-2.96,25.33.67-3.96-5.12-9.67-9.42-14.08-13.08-.54-1.92-5.36-8.64-6.17-9.25,0,0,4.58,1.42,8.67,5.08,1.18-1.67,3.37-3.38,6.37-4.13,3.08,2.58,3.62,6.55,3.54,7.21-1.39,1.65-2.75,2.33-2.75,2.33l7.4,8.02.74-5.75c17.07,24.37,26.38,52.61,14.4,88.13ZM137.51,120.54l-.02-12.6s-5.62-1.81-11.64-6.48c-12.07,1.83-26.7,13.98-26.7,13.98,0,0,4.95,9.38,10.34,19.48,9.51,1.31,23.5-10.67,28.02-14.39ZM149.65,143.4s-.97-5.21-5.1-10.08l-9.42.23s-12.71,10.92-20.46,11.17c0,0,4.27,7.95,6.42,12.09,4.27-.93,11.77-4.3,14.8-7.81,0,0,2,6.44,1.61,14.05,4.24-2.48,10.1-9.13,12.15-19.65ZM153.52,101.97c-4.75,4-8.78,6.22-8.78,6.22l.04,12.66c3.41,3.79,6.76,6.93,9.27,12.65,4.76-8.56,3.86-21.17-.53-31.53ZM204.68,112.37V37.62h23.69c15.43,0,27,9.18,27,24.98s-11.39,25.34-27,25.34h-9.18v24.43h-14.51ZM219.19,73.99h8.45c7.35,0,12.67-4.04,12.67-11.39s-5.33-11.2-12.67-11.2h-8.45v22.59ZM450.05,194.47c-10.84,0-24.06-5.88-24.06-24.24v-26.26h13.59v25.35c0,8.45,3.86,12.12,10.47,12.12,6.06,0,10.47-4.22,10.47-12.12v-25.35h13.59v26.26c0,18.37-13.41,24.24-24.06,24.24M333.06,194.47c-13.04,0-24.43-11.94-24.43-25.9s11.39-25.34,24.43-25.34c7.35,0,12.31,2.57,15.24,7.16l1.47-6.43h11.94v49.22h-11.94l-1.47-6.24c-2.94,4.41-8.45,7.53-15.24,7.53M335.81,155.53c-7.35,0-12.85,5.51-12.85,13.04s5.51,12.86,12.85,12.86,12.67-5.69,12.67-12.86c0-7.53-5.51-13.04-12.67-13.04M424.89,63.15h13.59v49.22h-13.59v-49.22ZM431.87,56.54c-4.77,0-8.45-3.67-8.45-8.27s3.67-8.45,8.45-8.45,8.45,3.67,8.45,8.45-3.67,8.27-8.45,8.27M404.5,83.35c0-5.33-2.94-8.63-7.53-8.63-5.33,0-8.08,3.31-8.08,8.82v28.83h-13.59v-29.02c0-5.33-2.94-8.63-7.53-8.63-5.33,0-8.08,3.31-8.08,8.82v28.83h-13.59v-49.22h11.94l1.47,6.43s2.94-7.71,12.12-7.71c5.69,0,10.47,2.39,13.77,7.35l.37.55.37-.55c4.78-6.79,10.65-7.35,14.33-7.35,10.47,0,17.63,7.9,17.63,19.1v31.41h-13.59v-29.02ZM499.46,112.37v-49.22h11.76l1.47,7.16c2.2-4.59,6.61-7.71,12.49-7.71,1.29,0,2.57.18,3.86.55v13.04c-1.65-.37-3.12-.55-4.78-.55-6.61,0-11.2,4.04-11.2,11.94v24.79h-13.59ZM259.96,112.37v-49.22h11.76l1.47,7.16c2.2-4.59,6.61-7.71,12.49-7.71,1.28,0,2.57.18,3.86.55v13.04c-1.65-.37-3.12-.55-4.78-.55-6.61,0-11.2,4.04-11.2,11.94v24.79h-13.59ZM204.68,193.18v-72.91h14.51v59.14h31.59v13.77h-46.1ZM280.16,194.47c-15.24,0-26.45-10.47-26.45-25.71,0-13.77,10.1-26.08,26.08-26.08,11.94,0,24.24,9,24.24,25.71,0,1.28,0,2.94-.37,4.77h-36c1.28,5.51,6.24,9.18,12.3,9.18,5.51,0,9.73-2.02,13.23-5.69l8.26,8.45c-5.33,6.06-13.04,9.37-21.31,9.37M279.43,154.61c-5.69,0-10.47,3.31-11.57,8.63h22.77c-1.1-5.14-5.69-8.63-11.2-8.63M505.33,194.47c-15.24,0-26.45-10.47-26.45-25.71,0-13.77,10.1-26.08,26.08-26.08,11.94,0,24.24,9,24.24,25.71,0,1.28,0,2.94-.37,4.77h-36c1.29,5.51,6.24,9.18,12.31,9.18,5.51,0,9.73-2.02,13.22-5.69l8.26,8.45c-5.33,6.06-13.04,9.37-21.3,9.37M504.6,154.61c-5.69,0-10.47,3.31-11.57,8.63h22.77c-1.1-5.14-5.69-8.63-11.2-8.63M470.25,113.66c-15.24,0-26.45-10.47-26.45-25.71,0-13.77,10.1-26.08,26.08-26.08,11.94,0,24.24,9,24.24,25.71,0,1.28,0,2.94-.37,4.77h-36c1.29,5.51,6.24,9.19,12.31,9.19,5.51,0,9.73-2.02,13.22-5.7l8.26,8.45c-5.33,6.06-13.04,9.37-21.31,9.37M469.52,73.8c-5.69,0-10.47,3.31-11.57,8.63h22.77c-1.1-5.14-5.69-8.63-11.2-8.63M316.9,113.66c-15.24,0-26.45-10.47-26.45-25.71,0-13.77,10.1-26.08,26.08-26.08,11.94,0,24.24,9,24.24,25.71,0,1.28,0,2.94-.37,4.77h-36c1.29,5.51,6.25,9.19,12.31,9.19,5.51,0,9.73-2.02,13.23-5.7l8.26,8.45c-5.33,6.06-13.04,9.37-21.31,9.37M316.16,73.8c-5.69,0-10.47,3.31-11.57,8.63h22.77c-1.1-5.14-5.69-8.63-11.2-8.63M393.85,155.53c-7.16,0-12.86,5.51-12.86,13.04s5.69,12.86,12.86,12.86,12.86-5.69,12.86-12.86c0-7.53-5.7-13.04-12.86-13.04M405.97,150.21l1.47-6.24h11.94v47.02c0,9.18-2.57,15.61-8.63,20.39-4.59,3.49-10.84,6.06-18.37,6.06-10.28,0-17.63-3.49-23.51-9.18l7.53-10.47c3.67,3.49,8.63,6.61,15.06,6.61,10.1,0,14.51-4.96,14.51-12.3v-3.49c-4.04,4.22-8.81,5.88-14.14,5.88-13.96,0-24.98-11.39-24.98-25.9s11.39-25.34,25.35-25.34c5.69,0,10.84,2.76,13.77,6.98"/>
</svg>