<?xml version="1.0" encoding="UTF-8"?>
<svg id="ARTWORK" xmlns="http://www.w3.org/2000/svg" viewBox="0 0 963.64 317.42">
  <defs>
    <style>
      .cls-1 {
        fill: #2d0046;
      }

      .cls-2 {
        fill: #0f206c;
      }
    </style>
  </defs>
  <g>
    <path class="cls-1" d="M445.65,128.92c-16.22,0-30.55,10.57-35.32,26.06l-48.96,158.94h48.4l13.26-43.06c14.17,8.19,25.76,22.03,30.83,43.06h46.14v-185h-54.35ZM427.43,256.58l26.43-85.8v94.33c-8.87-4.7-18.2-7.38-26.43-8.53Z"/>
    <path class="cls-1" d="M215.95,128.92l-44.08,143.11v-143.11h-54.34c-16.23,0-30.55,10.57-35.33,26.06l-36.06,117.05v-143.11H0v185h54.34c16.23,0,30.55-10.57,35.33-26.06l36.06-117.05v143.11h54.34c16.23,0,30.55-10.57,35.33-26.06l48.96-158.94h-48.41,0Z"/>
    <polygon class="cls-1" points="403.45 128.92 279.34 128.92 266.43 170.81 305.01 170.81 260.92 313.92 307.7 313.92 351.79 170.81 390.55 170.81 403.45 128.92"/>
  </g>
  <g>
    <path class="cls-1" d="M578.59,150.31h-32.77v-21.41h88.53v21.41h-32.77v163.59h-22.99v-163.59h0Z"/>
    <path class="cls-1" d="M644.92,269.24v-95.93c0-30.13,20.35-47.57,46.51-47.57s46.51,17.44,46.51,47.57v95.93c0,30.13-20.35,47.83-46.51,47.83s-46.51-17.71-46.51-47.83ZM715.22,267.91v-93.29c0-18.24-10.04-27.49-23.79-27.49s-23.52,9.25-23.52,27.49v93.29c0,18.24,10.04,27.75,23.52,27.75s23.79-9.51,23.79-27.75Z"/>
    <path class="cls-1" d="M756,271.35v-142.45h22.99v140.6c0,16.39,8.72,26.16,21.94,26.16s21.94-9.78,21.94-26.16v-140.6h22.99v142.45c0,29.07-19.29,45.72-45.19,45.72s-44.66-16.65-44.66-45.72h-.01Z"/>
    <path class="cls-1" d="M865.3,128.9h41.76c29.33,0,49.16,14.8,49.16,43.87v28.01c0,19.56-9.25,33.04-24.31,39.91l27.49,73.21h-25.37l-25.37-68.71h-20.35v68.71h-22.99v-185h-.02ZM906.53,223.78c17.18,0,26.69-7.4,26.69-25.37v-22.73c0-18.76-9.51-25.37-26.69-25.37h-18.24v73.47h18.24Z"/>
  </g>
  <g>
    <path class="cls-2" d="M69.47,1.35h-13.94v33.02H16.58V1.35H0v85.68h16.58v-37.95h38.95v37.95h16.57V1.35h-2.62"/>
    <path class="cls-2" d="M157.27,21.55c-3.55-6.76-8.77-12.1-15.52-15.89C135.06,1.91,127.46,0,119.16,0c-12.7,0-23.23,4.07-31.31,12.1-8.08,8.04-12.19,19.19-12.19,33.18,0,7.4,1.75,14.53,5.19,21.22,3.48,6.76,8.66,12.16,15.4,16.04,6.7,3.86,14.39,5.81,22.85,5.81,7.8,0,15.18-1.77,21.93-5.25,6.86-3.56,12.23-8.82,15.96-15.66,3.69-6.78,5.55-14.54,5.55-23.08s-1.77-16.11-5.27-22.81M145.71,44.31c0,9.55-2.53,16.97-7.51,22.08-5.03,5.15-11.3,7.66-19.15,7.66s-13.92-2.48-18.99-7.6c-5.01-5.03-7.55-12.11-7.55-21.04,0-11.25,2.62-19.29,7.78-23.9,5.33-4.76,11.52-7.07,18.93-7.07,5.13,0,9.82,1.23,13.93,3.65,4.11,2.43,7.14,5.76,9.29,10.21,2.17,4.51,3.28,9.88,3.28,16h0Z"/>
    <path class="cls-2" d="M182.65,72.32V1.35h-16.56v85.68h58.52v-14.71h-41.95"/>
    <path class="cls-2" d="M297.79,21.55c-3.53-6.75-8.76-12.1-15.51-15.89C275.6,1.91,267.99,0,259.69,0c-12.7,0-23.23,4.07-31.3,12.1-8.1,8.04-12.19,19.19-12.19,33.18,0,7.41,1.74,14.54,5.19,21.22,3.48,6.76,8.66,12.17,15.41,16.04,6.69,3.86,14.38,5.81,22.84,5.81,7.81,0,15.18-1.77,21.93-5.25,6.86-3.55,12.23-8.82,15.95-15.66,3.69-6.77,5.56-14.54,5.56-23.08s-1.77-16.12-5.28-22.81M286.24,44.31c0,9.54-2.53,16.97-7.51,22.08-5.03,5.15-11.29,7.66-19.15,7.66s-13.92-2.48-18.99-7.6c-5.08-5.11-7.55-11.99-7.55-21.04,0-11.25,2.61-19.29,7.78-23.9,5.32-4.76,11.52-7.07,18.94-7.07,5.12,0,9.8,1.23,13.92,3.65,4.11,2.42,7.15,5.76,9.29,10.21,2.17,4.51,3.27,9.89,3.27,16h0Z"/>
    <path class="cls-2" d="M349.94,40.76v14.7h25.05v11.04c-2.15,1.61-5.05,3.18-8.91,4.65-4.33,1.66-8.84,2.48-13.37,2.48-5.21,0-10.2-1.1-14.82-3.27-4.52-2.12-7.87-5.26-10.25-9.62-2.39-4.4-3.6-10.03-3.6-16.73,0-5.43,1.02-10.52,3.04-15.13,1.14-2.61,2.78-5.04,4.86-7.21,2.03-2.11,4.78-3.86,8.17-5.19,3.43-1.35,7.61-2.04,12.42-2.04,3.95,0,7.57.64,10.79,1.91,3.08,1.22,5.46,2.83,7.07,4.81,1.67,2.06,3.12,5.02,4.3,8.79l.75,2.4,15.17-3.99-.71-2.55c-1.56-5.74-3.91-10.5-6.96-14.16-3.11-3.7-7.42-6.61-12.8-8.65-5.26-2-11.19-3-17.65-3-8.86,0-16.84,1.76-23.68,5.23-6.99,3.53-12.43,9.01-16.12,16.27-3.64,7.12-5.49,14.88-5.49,23.06s1.87,15.96,5.55,22.71c3.74,6.85,9.33,12.15,16.64,15.74,7.16,3.55,15.23,5.33,23.98,5.33,6.47,0,12.86-1.1,19.02-3.29,6.13-2.18,12.13-5.48,17.85-9.8l1.05-.79v-33.71h-41.35"/>
    <polyline class="cls-2" points="411.97 1.35 398.02 1.35 398.02 87.03 414.59 87.03 414.59 1.35 411.97 1.35"/>
    <path class="cls-2" d="M484.23,53.06l-.59,2.58c-1.41,6.1-4.08,10.75-7.97,13.8-3.94,3.09-8.65,4.6-14.43,4.6-4.71,0-9.15-1.16-13.19-3.43-3.97-2.25-6.82-5.56-8.72-10.13-1.96-4.75-2.96-10.44-2.96-16.92,0-4.95.85-9.83,2.53-14.51,1.59-4.5,4.3-7.97,8.27-10.61,3.95-2.64,8.99-3.98,15.01-3.98,5.12,0,9.4,1.18,12.7,3.5,3.28,2.31,5.86,6.16,7.64,11.45l.77,2.23,16.12-3.56-.84-2.72c-2.45-7.99-6.87-14.29-13.15-18.71C479.18,2.25,471.43.02,462.4.02c-7.9,0-15.27,1.73-21.88,5.15-6.7,3.47-11.95,8.61-15.57,15.26-3.59,6.58-5.41,14.37-5.41,23.15,0,8,1.6,15.62,4.73,22.62,3.22,7.15,7.98,12.69,14.17,16.48,6.15,3.77,14.16,5.68,23.79,5.68s17.53-2.48,24.1-7.37c6.61-4.91,11.22-12.1,13.73-21.39l.71-2.62-16.53-3.9"/>
  </g>
</svg>